<?xml version="1.0" standalone="no"?>
<!DOCTYPE svg PUBLIC "-//W3C//DTD SVG 20010904//EN"
 "http://www.w3.org/TR/2001/REC-SVG-20010904/DTD/svg10.dtd">
<svg version="1.0" xmlns="http://www.w3.org/2000/svg"
 width="225.000000pt" height="225.000000pt" viewBox="0 0 225.000000 225.000000"
 preserveAspectRatio="xMidYMid meet">
<metadata>
Created by potrace 1.10, written by Peter Selinger 2001-2011
</metadata>
<g transform="translate(0.000000,225.000000) scale(0.100000,-0.100000)"
fill="#000000" stroke="none">
<path d="M868 2240 c-20 -4 -56 -20 -79 -36 -58 -40 -58 -40 -110 -59 -105
-36 -187 -115 -210 -199 -7 -24 -30 -62 -59 -93 -55 -61 -80 -123 -80 -203 0
-51 -3 -58 -29 -78 -16 -12 -44 -52 -63 -89 -32 -66 -33 -71 -34 -198 -1 -112
-4 -139 -24 -190 -19 -48 -24 -80 -24 -160 -1 -90 2 -105 26 -150 16 -31 28
-73 32 -109 10 -112 59 -181 262 -366 33 -30 93 -98 132 -151 63 -86 77 -98
131 -123 78 -35 179 -38 238 -7 46 23 107 87 130 136 l17 35 27 -48 c30 -54
96 -118 137 -133 15 -6 58 -10 95 -10 55 0 82 6 131 29 55 26 69 39 121 113
32 46 90 113 129 149 219 204 263 265 273 379 3 33 15 76 31 106 24 45 27 60
26 150 0 80 -5 112 -23 159 -20 50 -24 78 -25 190 -1 127 -2 133 -34 199 -19
37 -47 77 -63 89 -25 19 -29 28 -29 73 0 83 -25 147 -79 207 -28 30 -53 70
-59 92 -24 86 -125 179 -226 208 -23 6 -54 22 -70 35 -50 41 -87 55 -147 55
-67 0 -120 -26 -178 -86 l-34 -36 -47 44 c-74 70 -132 90 -212 76z m113 -76
c14 -7 44 -33 67 -58 l42 -46 0 -893 0 -894 -30 -61 c-55 -110 -138 -162 -226
-142 -82 19 -113 41 -169 120 -57 83 -127 156 -247 263 -62 55 -84 82 -114
142 -34 70 -40 105 -12 77 18 -18 55 -14 63 6 5 12 -3 24 -27 42 -79 60 -108
108 -115 189 -5 71 16 157 38 153 32 -5 38 20 22 98 -20 102 -13 220 16 287
37 84 46 84 70 3 21 -67 24 -71 49 -68 33 4 33 21 3 123 -34 113 -24 221 26
290 24 32 29 31 37 -5 7 -36 31 -49 53 -28 12 13 13 22 3 59 -24 89 9 167 94
225 46 31 51 33 54 15 5 -31 31 -34 55 -5 107 129 160 152 248 108z m441 -10
c20 -13 49 -40 64 -61 15 -21 34 -43 42 -50 17 -14 42 -6 42 13 0 20 15 17 59
-12 79 -52 114 -138 91 -223 -10 -37 -9 -46 3 -59 22 -21 46 -8 53 28 8 36 13
37 37 5 53 -73 60 -178 22 -310 -14 -47 -23 -91 -20 -96 4 -5 17 -9 30 -9 21
0 27 9 46 70 24 81 33 81 69 -3 30 -68 36 -187 17 -287 -16 -78 -10 -103 21
-98 22 4 44 -83 38 -155 -5 -71 -40 -133 -95 -171 -47 -33 -56 -50 -34 -71 14
-14 18 -14 40 0 14 9 27 14 30 11 4 -3 -10 -39 -31 -81 -30 -61 -52 -88 -119
-147 -122 -109 -182 -173 -240 -255 -55 -79 -90 -105 -169 -122 -90 -21 -172
31 -228 141 l-30 61 0 896 0 895 54 52 c80 77 132 87 208 38z"/>
<path d="M788 2055 c-40 -27 -78 -96 -78 -141 0 -17 11 -51 23 -77 24 -46 24
-46 3 -49 -14 -2 -31 -24 -55 -70 -49 -96 -53 -177 -16 -286 24 -69 27 -93 23
-157 -4 -66 -3 -77 13 -85 64 -35 76 155 18 285 -29 65 -21 134 24 225 l34 68
26 -25 c16 -16 31 -23 41 -20 32 13 28 36 -12 83 -56 63 -68 103 -46 149 9 19
29 43 45 52 31 18 37 41 17 61 -16 16 -18 16 -60 -13z"/>
<path d="M877 1935 c-13 -12 -13 -22 0 -72 24 -99 28 -306 8 -393 -26 -111
-25 -125 5 -125 21 0 28 8 44 55 28 79 34 302 12 429 -20 117 -36 140 -69 106z"/>
<path d="M517 1245 c-22 -21 -6 -55 26 -55 30 0 68 -41 101 -108 34 -67 75
-95 133 -89 49 5 73 21 73 49 0 25 -24 33 -59 18 -41 -17 -65 -1 -100 68 -52
102 -134 157 -174 117z"/>
<path d="M1004 1233 c-19 -25 -29 -29 -95 -33 -71 -5 -74 -6 -74 -30 0 -23 4
-25 55 -28 76 -4 114 4 150 35 23 19 30 33 28 52 -4 37 -38 39 -64 4z"/>
<path d="M312 1218 c-17 -17 -16 -24 14 -84 21 -43 27 -75 34 -171 8 -128 29
-198 75 -259 32 -42 79 -68 111 -60 36 9 31 44 -9 61 -70 29 -106 110 -113
255 -5 107 -33 214 -64 248 -24 25 -31 27 -48 10z"/>
<path d="M520 1136 c-28 -34 41 -205 122 -302 79 -95 97 -170 54 -221 -25 -30
-82 -53 -128 -53 -30 0 -53 -23 -44 -45 4 -10 19 -15 48 -15 121 0 208 68 208
163 l0 35 43 -15 c23 -8 57 -12 76 -9 39 6 91 51 91 78 0 22 -27 35 -45 22
-66 -49 -62 -48 -109 -30 -93 36 -235 228 -253 341 -9 62 -36 83 -63 51z"/>
<path d="M794 495 c-10 -26 2 -41 45 -53 54 -17 100 -57 123 -110 22 -49 43
-62 65 -40 13 14 13 21 -7 64 -28 64 -64 101 -125 130 -58 27 -93 30 -101 9z"/>
<path d="M550 465 c-27 -32 144 -237 237 -285 28 -14 55 -20 85 -18 38 3 43 6
43 28 0 22 -5 26 -40 31 -22 3 -53 12 -70 21 -38 21 -119 105 -174 181 -43 59
-60 68 -81 42z"/>
<path d="M1402 2068 c-19 -19 -14 -36 18 -59 16 -12 36 -37 45 -56 21 -44 8
-87 -46 -150 -42 -47 -44 -59 -16 -77 13 -9 22 -5 43 16 l27 27 36 -72 c29
-59 35 -83 35 -137 1 -42 -5 -77 -16 -100 -10 -19 -22 -65 -28 -102 -17 -111
6 -191 49 -168 16 8 17 19 13 85 -4 64 -1 88 23 157 37 109 33 190 -16 286
-24 46 -41 68 -55 70 -21 3 -21 3 3 49 12 26 23 60 23 77 0 45 -38 114 -78
141 -42 29 -44 29 -60 13z"/>
<path d="M1332 1937 c-25 -29 -44 -199 -40 -342 6 -171 27 -250 68 -250 30 0
31 14 5 125 -20 87 -16 294 8 393 13 50 13 60 0 72 -18 18 -27 19 -41 2z"/>
<path d="M1187 1253 c-16 -16 -5 -53 24 -77 39 -33 59 -38 139 -34 62 3 65 4
65 28 0 24 -3 25 -73 30 -66 4 -76 8 -96 33 -21 26 -45 34 -59 20z"/>
<path d="M1670 1253 c-31 -11 -83 -70 -111 -125 -35 -69 -59 -85 -100 -68 -35
15 -59 7 -59 -19 0 -24 46 -51 88 -51 44 0 93 39 121 97 33 66 68 103 97 103
32 0 49 33 28 54 -16 16 -36 19 -64 9z"/>
<path d="M1891 1206 c-35 -37 -62 -138 -65 -246 -2 -67 -9 -111 -24 -149 -22
-55 -57 -101 -77 -101 -25 0 -47 -26 -41 -48 14 -42 85 -18 131 42 47 61 67
131 75 258 6 98 11 125 35 174 20 41 25 61 18 72 -15 25 -27 24 -52 -2z"/>
<path d="M1683 1138 c-6 -7 -13 -31 -16 -52 -14 -87 -134 -268 -211 -317 -63
-41 -89 -43 -125 -13 -57 48 -97 7 -45 -47 35 -36 81 -46 138 -27 l44 15 5
-51 c4 -42 10 -55 45 -87 44 -42 102 -62 165 -57 33 2 42 7 42 22 0 24 -18 33
-79 41 -38 5 -58 15 -83 40 -55 55 -43 115 51 239 65 86 91 137 112 217 12 47
13 63 4 75 -15 17 -34 18 -47 2z"/>
<path d="M1354 486 c-87 -40 -165 -159 -130 -195 21 -21 42 -7 64 41 25 55 57
84 118 107 39 15 49 24 49 42 0 33 -37 35 -101 5z"/>
<path d="M1607 408 c-29 -40 -79 -96 -111 -125 -54 -49 -69 -56 -146 -66 -9
-1 -15 -13 -15 -27 0 -22 5 -25 42 -28 26 -2 57 4 80 14 53 26 154 124 209
204 39 58 45 72 34 85 -22 27 -38 17 -93 -57z"/>
</g>
</svg>
