<?xml version="1.0" standalone="no"?>
<!DOCTYPE svg PUBLIC "-//W3C//DTD SVG 20010904//EN"
 "http://www.w3.org/TR/2001/REC-SVG-20010904/DTD/svg10.dtd">
<svg version="1.0" xmlns="http://www.w3.org/2000/svg"
 width="225.000000pt" height="225.000000pt" viewBox="0 0 225.000000 225.000000"
 preserveAspectRatio="xMidYMid meet">
<metadata>
Created by potrace 1.10, written by Peter Selinger 2001-2011
</metadata>
<g transform="translate(0.000000,225.000000) scale(0.100000,-0.100000)"
fill="#000000" stroke="none">
<path d="M1178 1785 c-26 -7 -68 -23 -93 -35 -51 -25 -153 -114 -173 -152 -11
-20 -21 -24 -72 -25 -161 -3 -315 -111 -367 -255 -16 -43 -21 -47 -58 -53
-108 -18 -207 -93 -253 -194 -37 -79 -38 -192 -1 -271 33 -69 95 -131 167
-167 l57 -28 659 -3 c451 -2 676 1 712 8 214 45 360 250 326 457 -22 135 -105
247 -224 303 -35 17 -68 30 -75 30 -7 0 -17 19 -23 43 -28 118 -123 243 -227
299 -100 55 -248 73 -355 43z m254 -45 c77 -23 145 -67 194 -123 38 -44 94
-150 94 -178 0 -31 42 -70 105 -98 118 -54 192 -148 216 -275 27 -150 -54
-312 -192 -381 -85 -44 -136 -46 -814 -43 -708 3 -669 0 -756 69 -186 147
-112 454 123 509 67 16 82 29 118 105 34 72 109 147 176 176 25 11 81 24 125
29 l80 8 73 74 c74 76 143 118 223 137 67 16 167 12 235 -9z"/>
<path d="M1172 1711 c-73 -27 -138 -76 -195 -147 l-48 -59 -72 -2 c-40 0 -92
-8 -116 -17 -96 -35 -181 -123 -211 -221 -18 -57 -24 -62 -84 -68 -67 -7 -109
-27 -164 -80 -46 -45 -82 -125 -82 -182 0 -63 37 -141 91 -189 89 -80 59 -77
810 -74 l664 3 63 34 c34 19 79 52 98 74 122 135 119 329 -7 456 -43 43 -147
101 -181 101 -22 0 -26 8 -44 77 -32 122 -122 230 -234 281 -77 35 -212 41
-288 13z m296 -61 c106 -56 176 -154 191 -266 8 -58 27 -84 61 -84 40 0 114
-35 159 -76 157 -141 119 -389 -75 -485 l-49 -24 -660 -3 c-591 -2 -665 -1
-703 14 -61 23 -101 60 -128 119 -42 89 -26 173 46 245 48 49 100 70 169 70
47 0 81 26 81 63 0 37 45 120 86 159 62 59 124 82 223 82 l85 1 40 58 c48 70
98 112 174 144 49 20 70 23 147 20 80 -3 97 -7 153 -37z"/>
</g>
</svg>
