<?xml version="1.0" standalone="no"?>
<!DOCTYPE svg PUBLIC "-//W3C//DTD SVG 20010904//EN"
 "http://www.w3.org/TR/2001/REC-SVG-20010904/DTD/svg10.dtd">
<svg version="1.0" xmlns="http://www.w3.org/2000/svg"
 width="200.000000pt" height="200.000000pt" viewBox="0 0 200.000000 200.000000"
 preserveAspectRatio="xMidYMid meet">
<metadata>
Created by potrace 1.10, written by Peter Selinger 2001-2011
</metadata>
<g transform="translate(0.000000,200.000000) scale(0.100000,-0.100000)"
fill="#000000" stroke="none">
<path d="M845 1900 c-187 -16 -363 -61 -480 -123 -80 -42 -167 -130 -183 -183
-17 -59 -17 -1130 0 -1187 16 -51 87 -127 162 -171 306 -181 955 -188 1291
-13 79 42 167 129 183 183 17 59 17 1129 0 1188 -16 54 -104 141 -183 183
-184 96 -516 147 -790 123z m410 -75 c216 -33 377 -97 458 -184 61 -65 61 -87
0 -152 -82 -87 -261 -158 -477 -188 -100 -14 -372 -14 -472 0 -216 30 -395
101 -477 188 -53 57 -58 84 -25 127 77 98 247 173 474 208 122 19 395 20 519
1z m-861 -485 c168 -78 351 -112 606 -112 184 0 310 15 450 53 103 29 229 89
278 134 l42 37 0 -123 c-1 -180 -29 -228 -178 -303 -161 -81 -318 -110 -592
-110 -274 0 -431 29 -592 110 -149 75 -177 123 -178 303 l0 123 42 -37 c22
-21 78 -55 122 -75z m-19 -368 c75 -37 195 -75 311 -99 127 -25 501 -25 628 0
181 37 329 95 414 164 l42 34 0 -113 c0 -150 -8 -175 -75 -237 -292 -266
-1219 -243 -1432 36 -27 35 -28 41 -31 176 l-4 140 44 -36 c24 -19 70 -48 103
-65z m1390 -521 c-14 -92 -150 -190 -335 -240 -250 -68 -611 -68 -859 -1 -159
44 -295 130 -327 207 -9 21 -14 74 -14 153 l0 120 60 -44 c97 -71 239 -122
440 -157 115 -20 441 -17 565 5 190 34 376 109 441 177 l29 30 3 -103 c2 -57
0 -123 -3 -147z"/>
<path d="M390 1200 c-16 -16 -18 -25 -10 -40 12 -22 40 -26 58 -8 18 18 14 46
-8 58 -15 8 -24 6 -40 -10z"/>
<path d="M381 822 c-20 -38 31 -71 59 -37 6 8 9 23 5 35 -8 25 -51 27 -64 2z"/>
<path d="M381 432 c-13 -25 5 -52 34 -52 15 0 26 7 30 20 13 41 -44 70 -64 32z"/>
</g>
</svg>
