<?xml version="1.0" standalone="no"?>
<!DOCTYPE svg PUBLIC "-//W3C//DTD SVG 20010904//EN"
 "http://www.w3.org/TR/2001/REC-SVG-20010904/DTD/svg10.dtd">
<svg version="1.0" xmlns="http://www.w3.org/2000/svg"
 width="300.000000pt" height="300.000000pt" viewBox="0 0 300.000000 300.000000"
 preserveAspectRatio="xMidYMid meet">
<metadata>
Created by potrace 1.10, written by Peter Selinger 2001-2011
</metadata>
<g transform="translate(0.000000,300.000000) scale(0.100000,-0.100000)"
fill="#000000" stroke="none">
<path d="M1040 2766 l-175 -152 -5 -220 -5 -219 -240 0 c-270 0 -277 -2 -339
-78 l-31 -39 -3 -607 -2 -607 22 -35 c13 -19 43 -44 68 -56 43 -23 51 -23 410
-23 l365 0 -63 -195 c-62 -190 -64 -195 -90 -195 -63 0 -132 -67 -132 -128 0
-40 28 -91 62 -112 32 -19 49 -20 618 -20 569 0 586 1 618 20 34 21 62 72 62
112 0 61 -69 128 -132 128 -26 0 -28 5 -90 195 l-63 195 365 0 c408 0 422 3
471 71 l24 34 3 605 c2 435 -1 612 -9 632 -6 15 -28 43 -49 62 -49 44 -83 48
-353 44 l-207 -3 0 361 c0 267 -3 363 -12 372 -9 9 -125 12 -463 11 l-450 0
-175 -153z m220 -38 l0 -133 -161 0 -160 0 47 40 c27 22 96 81 154 132 58 50
108 92 113 92 4 1 7 -59 7 -131z m810 -680 l0 -813 -570 0 -570 0 0 95 0 95
227 -3 c125 -2 238 -1 250 3 l23 5 0 210 0 210 -23 5 c-12 4 -125 5 -250 3
l-227 -3 0 338 0 337 189 0 c151 0 191 3 200 14 9 10 12 60 11 158 -1 79 -1
146 -1 151 1 4 168 7 371 7 l370 0 0 -812z m-1210 -68 l0 -129 -142 -3 -143
-3 -3 -199 c-2 -142 1 -202 9 -213 10 -11 39 -13 146 -11 l133 3 0 -115 c0
-77 4 -120 12 -128 17 -17 1239 -17 1256 0 9 9 12 127 12 470 l0 458 234 0
c129 0 246 -4 260 -10 14 -5 35 -24 46 -42 19 -32 20 -51 20 -510 l0 -478
-1200 0 -1200 0 0 465 c0 514 0 517 62 555 31 18 50 20 266 20 l232 0 0 -130z
m510 -340 l0 -150 -365 0 -365 0 0 150 0 150 365 0 365 0 0 -150z m1328 -706
c-3 -71 -6 -78 -36 -105 l-32 -29 -1130 0 -1130 0 -32 29 c-30 27 -33 34 -36
105 l-4 76 1202 0 1202 0 -4 -76z m-812 -386 c32 -101 60 -188 62 -195 3 -10
-87 -13 -447 -13 -248 0 -451 3 -451 7 0 4 28 92 62 195 l63 188 325 0 326 0
60 -182z m206 -295 c18 -16 24 -59 10 -79 -21 -32 -51 -34 -602 -34 -551 0
-581 2 -602 34 -13 19 -9 59 9 78 15 17 47 18 591 18 521 0 577 -2 594 -17z"/>
<path d="M1500 2725 c-6 -8 -10 -22 -8 -32 3 -17 21 -18 257 -18 226 0 255 2
264 17 8 12 7 21 -2 32 -12 14 -47 16 -256 16 -200 0 -245 -3 -255 -15z"/>
<path d="M1499 2534 c-9 -11 -10 -20 -2 -32 9 -15 38 -17 258 -17 220 0 249 2
258 17 8 12 7 21 -2 32 -12 14 -47 16 -256 16 -209 0 -244 -2 -256 -16z"/>
<path d="M1032 2348 c-18 -18 -15 -36 7 -48 13 -6 183 -10 483 -10 389 0 467
2 484 14 15 12 17 18 8 33 -10 17 -40 18 -490 21 -365 2 -483 -1 -492 -10z"/>
<path d="M1025 2150 c-3 -11 -3 -24 0 -30 9 -14 981 -14 990 0 3 6 3 19 0 30
-6 20 -16 20 -495 20 -479 0 -489 0 -495 -20z"/>
<path d="M1032 1974 c-9 -7 -12 -18 -8 -32 l7 -22 489 0 c488 0 489 0 495 21
4 12 3 25 -2 30 -14 14 -962 17 -981 3z"/>
<path d="M1499 1784 c-9 -11 -10 -20 -2 -32 9 -15 38 -17 258 -17 220 0 249 2
258 17 8 12 7 21 -2 32 -12 14 -47 16 -256 16 -209 0 -244 -2 -256 -16z"/>
<path d="M1499 1594 c-9 -11 -10 -20 -2 -32 9 -15 38 -17 258 -17 220 0 249 2
258 17 8 12 7 21 -2 32 -12 14 -47 16 -256 16 -209 0 -244 -2 -256 -16z"/>
<path d="M1493 1404 c-16 -43 -1 -46 261 -45 257 0 282 4 260 39 -10 15 -37
17 -263 20 -226 2 -252 1 -258 -14z"/>
<path d="M2120 925 c-6 -8 -10 -22 -8 -32 3 -16 16 -18 132 -18 114 0 130 2
140 18 9 15 7 21 -8 33 -28 20 -238 20 -256 -1z"/>
</g>
</svg>
