<?xml version="1.0" standalone="no"?>
<!DOCTYPE svg PUBLIC "-//W3C//DTD SVG 20010904//EN"
 "http://www.w3.org/TR/2001/REC-SVG-20010904/DTD/svg10.dtd">
<svg version="1.0" xmlns="http://www.w3.org/2000/svg"
 width="225.000000pt" height="225.000000pt" viewBox="0 0 225.000000 225.000000"
 preserveAspectRatio="xMidYMid meet">
<metadata>
Created by potrace 1.10, written by Peter Selinger 2001-2011
</metadata>
<g transform="translate(0.000000,225.000000) scale(0.100000,-0.100000)"
fill="#000000" stroke="none">
<path d="M931 1899 c-239 -40 -540 -218 -714 -423 -116 -136 -217 -300 -217
-351 0 -38 74 -171 151 -272 203 -267 503 -455 802 -503 123 -20 340 -8 452
24 233 68 467 222 630 413 111 129 205 286 205 339 0 37 -72 168 -146 267
-192 255 -488 447 -774 501 -90 17 -299 20 -389 5z m371 -44 c278 -48 563
-228 754 -476 75 -98 144 -219 144 -254 0 -21 -18 -61 -55 -120 -212 -337
-531 -564 -868 -616 -106 -17 -313 -6 -416 21 -306 81 -587 298 -767 595 -30
50 -60 97 -66 106 -8 11 -4 25 19 60 16 24 56 84 88 133 184 278 499 497 794
550 102 19 270 19 373 1z"/>
<path d="M961 1769 c-258 -43 -526 -220 -711 -470 -78 -105 -105 -158 -96
-192 3 -14 28 -58 55 -99 174 -258 421 -444 681 -512 89 -24 280 -32 377 -16
273 44 525 208 722 470 78 104 106 159 97 193 -9 37 -94 160 -175 254 -169
194 -412 336 -641 372 -77 13 -233 12 -309 0z m394 -59 c107 -28 244 -96 341
-168 124 -93 264 -249 343 -383 l22 -37 -61 -91 c-123 -184 -298 -341 -474
-426 -260 -126 -568 -125 -821 3 -162 81 -355 257 -463 422 l-61 93 24 41 c51
86 141 199 220 274 163 157 334 250 530 288 100 19 297 12 400 -16z"/>
<path d="M987 1540 c-158 -50 -271 -184 -299 -354 -26 -155 52 -331 186 -422
219 -148 528 -65 640 172 139 293 -73 626 -397 623 -41 0 -97 -8 -130 -19z
m286 -49 c36 -14 79 -43 115 -76 173 -160 173 -420 0 -580 -82 -76 -147 -100
-268 -99 -119 0 -187 24 -263 94 -165 151 -178 396 -30 560 52 58 95 86 171
111 76 25 194 21 275 -10z"/>
<path d="M1024 1412 c-70 -25 -122 -69 -164 -138 -33 -55 -35 -63 -35 -149 0
-81 3 -95 30 -144 97 -176 333 -214 471 -76 63 63 86 116 92 206 4 66 1 84
-20 131 -14 30 -40 70 -57 91 -72 81 -213 117 -317 79z m211 -50 c52 -27 110
-87 131 -137 21 -51 21 -149 0 -200 -21 -49 -78 -110 -131 -138 -57 -30 -173
-30 -231 0 -50 26 -108 90 -129 140 -21 49 -21 147 0 196 29 70 99 133 175
158 41 14 142 3 185 -19z"/>
</g>
</svg>
